<?xml version="1.0" encoding="UTF-8" standalone="no"?><!DOCTYPE svg PUBLIC "-//W3C//DTD SVG 1.1//EN" "http://www.w3.org/Graphics/SVG/1.1/DTD/svg11.dtd"><svg width="100%" height="100%" viewBox="0 0 7656 5935" version="1.1" xmlns="http://www.w3.org/2000/svg" xmlns:xlink="http://www.w3.org/1999/xlink" xml:space="preserve" xmlns:serif="http://www.serif.com/" style="fill-rule:evenodd;clip-rule:evenodd;stroke-linejoin:round;stroke-miterlimit:1.41421;"><rect id="Artboard1" x="0" y="0" width="7655.58" height="5934.39" style="fill-opacity:0;"/><g id="Layer2"><g id="tower"><path d="M5656.63,4100.15l-4401.47,-2.163l-1.031,1055.89l4401.47,2.163l1.031,-1055.89Z" style="fill:#9e62e9;"/><path d="M4245.82,3199.35l-1578.09,-0.775l-1.909,1955.99l1578.09,0.776l1.909,-1955.99Z" style="fill:#9e62e9;"/><path d="M2984.91,2696.75l-316.691,-0.156l-2.399,2457.97l316.691,0.156l2.399,-2457.97Z" style="fill:#9e62e9;"/><path d="M4246.31,2697.37l-305.956,-0.15l-2.399,2457.97l305.956,0.151l2.399,-2457.97Z" style="fill:#9e62e9;"/><path d="M3938.72,4362.65l-955.441,-0.47l-0.774,792.544l955.442,0.469l0.773,-792.543Z" style="fill:#ffb500;"/><path d="M3874.32,4779.06c42.025,-98.739 64.208,-210.757 64.32,-324.795c0.35,-358.554 -213.426,-649.759 -477.087,-649.888c-263.661,-0.13 -478.005,290.865 -478.355,649.418c-0.111,114.038 21.853,226.078 63.686,324.858l827.436,0.407Z" style="fill:#ffb500;"/><path d="M2963.7,2696.74c13.922,-24.832 21.266,-53.004 21.294,-81.685c0.088,-90.177 -157.93,-425.799 -157.93,-425.799c0,0 -158.673,335.466 -158.761,425.643c-0.028,28.681 7.261,56.861 21.134,81.706l274.263,0.135Z" style="fill:#ffb500;"/><path d="M4235.83,2697.37c13.922,-24.832 21.266,-53.004 21.294,-81.685c0.088,-90.177 -157.93,-425.799 -157.93,-425.799c0,0 -158.674,335.466 -158.762,425.644c-0.028,28.681 7.262,56.86 21.135,81.705l274.263,0.135Z" style="fill:#ffb500;"/><path d="M3348.99,3403.08l-187.412,-0.093l-0.127,129.823l187.413,0.092l0.126,-129.822Z" style="fill:#ffb500;"/><path d="M3697.79,3564.34l-187.413,-0.092l-0.126,129.822l187.412,0.092l0.127,-129.822Z" style="fill:#ffb500;"/><path d="M3697.95,3403.25l-187.412,-0.092l-0.127,129.822l187.412,0.093l0.127,-129.823Z" style="fill:#ffb500;"/><path d="M3348.83,3564.16l-187.412,-0.092l-0.127,129.822l187.412,0.093l0.127,-129.823Z" style="fill:#ffb500;"/><path d="M2243.39,4176.36l-159.971,-0.079l-0.341,349.124l159.971,0.079l0.341,-349.124Z" style="fill:#ffb500;"/><path d="M4964.8,4627.75l-159.971,-0.079l-0.341,349.124l159.971,0.079l0.341,-349.124Z" style="fill:#ffb500;"/><path d="M4965.24,4177.7l-159.971,-0.079l-0.34,349.124l159.97,0.079l0.341,-349.124Z" style="fill:#ffb500;"/><path d="M4621.82,4627.58l-159.971,-0.079l-0.341,349.123l159.971,0.079l0.341,-349.123Z" style="fill:#ffb500;"/><path d="M4622.26,4177.53l-159.97,-0.078l-0.341,349.123l159.97,0.079l0.341,-349.124Z" style="fill:#ffb500;"/><path d="M2573.17,4176.52l-159.971,-0.078l-0.34,349.123l159.97,0.079l0.341,-349.124Z" style="fill:#ffb500;"/><path d="M2572.74,4626.58l-159.971,-0.078l-0.341,349.123l159.971,0.079l0.341,-349.124Z" style="fill:#ffb500;"/><path d="M2242.95,4626.41l-159.97,-0.078l-0.341,349.123l159.971,0.079l0.34,-349.124Z" style="fill:#ffb500;"/><path d="M3093.13,2887.76l-108.406,-0.053l-0.358,366.882l108.406,0.053l0.358,-366.882Z" style="fill:#9e62e9;"/><path d="M4010.5,2888.21l-137.245,-0.067l-0.358,366.882l137.245,0.067l0.358,-366.882Z" style="fill:#9e62e9;"/><path d="M3604.57,3071.45l-237.126,-0.117l-0.18,183.441l237.127,0.117l0.179,-183.441Z" style="fill:#9e62e9;"/><path d="M3208.53,3071.26l-169.778,-0.083l-0.247,253.323l169.778,0.084l0.247,-253.324Z" style="fill:#9e62e9;"/><path d="M3939.99,3071.62l-146.365,-0.072l-0.125,127.584l146.366,0.072l0.124,-127.584Z" style="fill:#9e62e9;"/><path d="M3526.59,3006.51l-81.042,-0.04l-0.188,192.484l81.042,0.04l0.188,-192.484Z" style="fill:#9e62e9;"/></g><g id="cloud"><path d="M5322.92,1318.14c126.793,-1.875 231.084,88.578 232.748,201.867c1.664,113.29 -99.925,206.789 -226.718,208.665c-126.793,1.875 -231.083,-88.578 -232.747,-201.868c-1.664,-113.289 99.924,-206.788 226.717,-208.664Z" style="fill:#d276ff;fill-opacity:0.972549;"/><path d="M5023.28,1271.55c122.265,-1.809 223.128,105.662 225.099,239.846c1.971,134.183 -95.692,244.591 -217.957,246.4c-122.264,1.808 -223.128,-105.663 -225.099,-239.846c-1.971,-134.183 95.693,-244.591 217.957,-246.4Z" style="fill:#d276ff;fill-opacity:0.972549;"/><path d="M4699.06,1546.21c119.677,-1.77 218.101,82.707 219.655,188.53c1.555,105.823 -94.346,193.176 -214.023,194.946c-119.677,1.771 -218.101,-82.707 -219.656,-188.53c-1.554,-105.823 94.347,-193.175 214.024,-194.946Z" style="fill:#d276ff;fill-opacity:0.972549;"/><path d="M5637.19,1482.91c124.206,-1.837 226.469,93.655 228.224,213.112c1.754,119.456 -97.66,217.932 -221.865,219.769c-124.206,1.838 -226.469,-93.654 -228.224,-213.111c-1.754,-119.457 97.66,-217.932 221.865,-219.77Z" style="fill:#d276ff;fill-opacity:0.972549;"/><path d="M5771.69,1700.35c-0.576,-39.278 -32.933,-70.695 -72.211,-70.114l-950.07,14.055c-39.278,0.581 -70.698,32.941 -70.121,72.219l2.091,142.333c0.577,39.278 32.934,70.695 72.211,70.114l950.07,-14.055c39.278,-0.581 70.698,-32.941 70.121,-72.219l-2.091,-142.333Z" style="fill:#d276ff;fill-opacity:0.972549;"/></g><g id="cloud1" serif:id="cloud"><path d="M3297.74,590.329c126.793,-1.876 231.084,88.578 232.748,201.867c1.664,113.289 -99.925,206.788 -226.718,208.664c-126.793,1.876 -231.083,-88.578 -232.747,-201.867c-1.664,-113.289 99.925,-206.789 226.717,-208.664Z" style="fill:#d276ff;fill-opacity:0.972549;"/><path d="M2998.11,543.738c122.265,-1.808 223.128,105.663 225.099,239.846c1.971,134.183 -95.692,244.591 -217.957,246.4c-122.264,1.809 -223.128,-105.663 -225.099,-239.846c-1.971,-134.183 95.693,-244.591 217.957,-246.4Z" style="fill:#d276ff;fill-opacity:0.972549;"/><path d="M2673.88,818.398c119.677,-1.77 218.101,82.708 219.655,188.531c1.555,105.823 -94.346,193.175 -214.023,194.946c-119.677,1.77 -218.101,-82.708 -219.656,-188.531c-1.554,-105.823 94.347,-193.175 214.024,-194.946Z" style="fill:#d276ff;fill-opacity:0.972549;"/><path d="M3612.01,755.105c124.206,-1.838 226.469,93.654 228.224,213.111c1.754,119.457 -97.66,217.932 -221.865,219.77c-124.206,1.837 -226.469,-93.655 -228.224,-213.112c-1.754,-119.456 97.66,-217.932 221.865,-219.769Z" style="fill:#d276ff;fill-opacity:0.972549;"/><path d="M3746.51,972.544c-0.577,-39.278 -32.934,-70.695 -72.212,-70.114l-950.07,14.055c-39.277,0.581 -70.698,32.941 -70.121,72.219l2.091,142.333c0.577,39.278 32.934,70.695 72.212,70.114l950.069,-14.055c39.278,-0.581 70.698,-32.941 70.121,-72.219l-2.09,-142.333Z" style="fill:#d276ff;fill-opacity:0.972549;"/><rect x="2059.66" y="4323.94" width="551.672" height="19.322" style="fill:#a300ff;"/><rect x="2065.36" y="4781.78" width="551.672" height="19.322" style="fill:#a300ff;"/><rect x="4437.94" y="4772.11" width="551.672" height="19.322" style="fill:#a300ff;"/><rect x="2158.33" y="4157.14" width="17.119" height="844.871" style="fill:#a300ff;"/><rect x="4533.1" y="4205.07" width="17.119" height="844.871" style="fill:#a300ff;"/><rect x="4876.08" y="4177.07" width="17.119" height="844.871" style="fill:#a300ff;"/><rect x="2484.46" y="4168.46" width="17.119" height="844.871" style="fill:#a300ff;"/></g><g id="cloud2" serif:id="cloud"><path d="M6293.99,1501.7c126.793,-1.875 231.084,88.578 232.748,201.867c1.664,113.289 -99.925,206.789 -226.718,208.664c-126.793,1.876 -231.084,-88.577 -232.748,-201.867c-1.663,-113.289 99.925,-206.788 226.718,-208.664Z" style="fill:#d276ff;fill-opacity:0.972549;"/><path d="M5994.35,1455.11c122.265,-1.809 223.128,105.662 225.099,239.845c1.971,134.184 -95.692,244.592 -217.957,246.4c-122.265,1.809 -223.128,-105.662 -225.099,-239.845c-1.971,-134.183 95.692,-244.592 217.957,-246.4Z" style="fill:#d276ff;fill-opacity:0.972549;"/><path d="M5670.13,1729.77c119.677,-1.77 218.102,82.707 219.656,188.53c1.554,105.823 -94.346,193.176 -214.023,194.946c-119.677,1.77 -218.102,-82.707 -219.656,-188.53c-1.554,-105.823 94.346,-193.176 214.023,-194.946Z" style="fill:#d276ff;fill-opacity:0.972549;"/><path d="M6608.26,1666.48c124.206,-1.837 226.469,93.655 228.224,213.112c1.754,119.456 -97.66,217.932 -221.866,219.769c-124.205,1.838 -226.468,-93.654 -228.223,-213.111c-1.755,-119.457 97.66,-217.932 221.865,-219.77Z" style="fill:#d276ff;fill-opacity:0.972549;"/><path d="M6742.76,1883.91c-0.577,-39.277 -32.934,-70.694 -72.211,-70.113l-950.07,14.054c-39.278,0.581 -70.698,32.942 -70.121,72.22l2.091,142.333c0.576,39.278 32.933,70.695 72.211,70.114l950.07,-14.055c39.278,-0.581 70.698,-32.942 70.121,-72.219l-2.091,-142.334Z" style="fill:#d276ff;fill-opacity:0.972549;"/></g><g id="cloud3" serif:id="cloud"><path d="M5523.94,428.551c126.792,-1.876 231.083,88.578 232.747,201.867c1.664,113.289 -99.925,206.789 -226.718,208.664c-126.793,1.876 -231.083,-88.578 -232.747,-201.867c-1.664,-113.289 99.925,-206.788 226.718,-208.664Z" style="fill:#d276ff;fill-opacity:0.972549;"/><path d="M5224.31,381.961c122.265,-1.809 223.128,105.662 225.099,239.845c1.971,134.183 -95.692,244.592 -217.957,246.4c-122.264,1.809 -223.128,-105.662 -225.099,-239.845c-1.97,-134.184 95.693,-244.592 217.957,-246.4Z" style="fill:#d276ff;fill-opacity:0.972549;"/><path d="M4900.08,656.621c119.677,-1.771 218.101,82.707 219.655,188.53c1.555,105.823 -94.346,193.175 -214.023,194.946c-119.677,1.77 -218.101,-82.707 -219.656,-188.53c-1.554,-105.823 94.347,-193.176 214.024,-194.946Z" style="fill:#d276ff;fill-opacity:0.972549;"/><path d="M5838.21,593.327c124.205,-1.837 226.468,93.655 228.223,213.111c1.754,119.457 -97.66,217.933 -221.865,219.77c-124.206,1.837 -226.469,-93.655 -228.224,-213.111c-1.754,-119.457 97.66,-217.933 221.866,-219.77Z" style="fill:#d276ff;fill-opacity:0.972549;"/><path d="M5972.71,810.766c-0.577,-39.278 -32.934,-70.695 -72.212,-70.114l-950.07,14.055c-39.277,0.581 -70.698,32.942 -70.121,72.22l2.091,142.333c0.577,39.278 32.934,70.695 72.212,70.114l950.069,-14.055c39.278,-0.581 70.698,-32.942 70.121,-72.22l-2.09,-142.333Z" style="fill:#d276ff;fill-opacity:0.972549;"/></g><g id="cloud4" serif:id="cloud"><path d="M3679.74,1501.7c126.793,-1.875 231.083,88.578 232.747,201.867c1.664,113.289 -99.925,206.789 -226.718,208.664c-126.792,1.876 -231.083,-88.577 -232.747,-201.867c-1.664,-113.289 99.925,-206.788 226.718,-208.664Z" style="fill:#d276ff;fill-opacity:0.972549;"/><path d="M3380.1,1455.11c122.265,-1.809 223.128,105.662 225.099,239.845c1.971,134.184 -95.692,244.592 -217.957,246.4c-122.264,1.809 -223.128,-105.662 -225.099,-239.845c-1.97,-134.183 95.693,-244.592 217.957,-246.4Z" style="fill:#d276ff;fill-opacity:0.972549;"/><path d="M3055.87,1729.77c119.677,-1.77 218.101,82.707 219.656,188.53c1.554,105.823 -94.347,193.176 -214.024,194.946c-119.677,1.77 -218.101,-82.707 -219.656,-188.53c-1.554,-105.823 94.347,-193.176 214.024,-194.946Z" style="fill:#d276ff;fill-opacity:0.972549;"/><path d="M3994,1666.48c124.205,-1.837 226.468,93.655 228.223,213.112c1.755,119.456 -97.66,217.932 -221.865,219.769c-124.206,1.838 -226.469,-93.654 -228.224,-213.111c-1.754,-119.457 97.66,-217.932 221.866,-219.77Z" style="fill:#d276ff;fill-opacity:0.972549;"/><path d="M4128.5,1883.91c-0.577,-39.277 -32.934,-70.694 -72.212,-70.113l-950.069,14.054c-39.278,0.581 -70.699,32.942 -70.122,72.22l2.091,142.333c0.577,39.278 32.934,70.695 72.212,70.114l950.069,-14.055c39.278,-0.581 70.698,-32.942 70.121,-72.219l-2.09,-142.334Z" style="fill:#d276ff;fill-opacity:0.972549;"/></g><g id="cloud5" serif:id="cloud"><path d="M2259.27,604.383c126.792,-1.876 231.083,88.578 232.747,201.867c1.664,113.289 -99.925,206.788 -226.718,208.664c-126.793,1.875 -231.083,-88.578 -232.747,-201.867c-1.664,-113.289 99.925,-206.789 226.718,-208.664Z" style="fill:#d276ff;fill-opacity:0.972549;"/><path d="M1959.63,557.792c122.265,-1.809 223.128,105.663 225.099,239.846c1.971,134.183 -95.692,244.591 -217.957,246.4c-122.264,1.808 -223.128,-105.663 -225.099,-239.846c-1.97,-134.183 95.693,-244.591 217.957,-246.4Z" style="fill:#d276ff;fill-opacity:0.972549;"/><path d="M1635.4,832.452c119.677,-1.77 218.101,82.707 219.655,188.531c1.555,105.823 -94.346,193.175 -214.023,194.945c-119.677,1.771 -218.101,-82.707 -219.656,-188.53c-1.554,-105.823 94.347,-193.175 214.024,-194.946Z" style="fill:#d276ff;fill-opacity:0.972549;"/><path d="M2573.54,769.159c124.205,-1.838 226.468,93.654 228.223,213.111c1.754,119.457 -97.66,217.932 -221.865,219.77c-124.206,1.837 -226.469,-93.655 -228.224,-213.112c-1.754,-119.457 97.66,-217.932 221.866,-219.769Z" style="fill:#d276ff;fill-opacity:0.972549;"/><path d="M2708.03,986.598c-0.577,-39.278 -32.934,-70.695 -72.212,-70.114l-950.07,14.055c-39.277,0.581 -70.698,32.941 -70.121,72.219l2.091,142.333c0.577,39.278 32.934,70.695 72.212,70.114l950.069,-14.055c39.278,-0.581 70.698,-32.941 70.121,-72.219l-2.09,-142.333Z" style="fill:#d276ff;fill-opacity:0.972549;"/></g><g id="cloud6" serif:id="cloud"><path d="M6969.34,2224.95c126.793,-1.876 231.083,88.578 232.747,201.867c1.664,113.289 -99.925,206.788 -226.718,208.664c-126.792,1.876 -231.083,-88.578 -232.747,-201.867c-1.664,-113.289 99.925,-206.788 226.718,-208.664Z" style="fill:#c7f;fill-opacity:0.972549;"/><path d="M6669.7,2178.36c122.265,-1.809 223.129,105.662 225.099,239.845c1.971,134.183 -95.692,244.591 -217.957,246.4c-122.264,1.809 -223.128,-105.662 -225.098,-239.845c-1.971,-134.184 95.692,-244.592 217.956,-246.4Z" style="fill:#c7f;fill-opacity:0.972549;"/><path d="M6345.48,2453.02c119.677,-1.771 218.101,82.707 219.656,188.53c1.554,105.823 -94.347,193.175 -214.024,194.946c-119.677,1.77 -218.101,-82.707 -219.655,-188.53c-1.555,-105.824 94.346,-193.176 214.023,-194.946Z" style="fill:#c7f;fill-opacity:0.972549;"/><path d="M7283.61,2389.72c124.205,-1.837 226.468,93.655 228.223,213.111c1.755,119.457 -97.66,217.933 -221.865,219.77c-124.206,1.837 -226.469,-93.655 -228.224,-213.111c-1.754,-119.457 97.66,-217.933 221.866,-219.77Z" style="fill:#c7f;fill-opacity:0.972549;"/><path d="M7418.11,2607.16c-0.577,-39.278 -32.934,-70.695 -72.212,-70.114l-950.069,14.055c-39.278,0.581 -70.699,32.942 -70.122,72.22l2.091,142.333c0.577,39.278 32.934,70.695 72.212,70.113l950.069,-14.054c39.278,-0.581 70.698,-32.942 70.121,-72.22l-2.09,-142.333Z" style="fill:#c7f;fill-opacity:0.972549;"/></g><g id="papers"><path d="M2637.22,3014.31l-374.657,-53.289l-72.606,437.531l374.657,53.288l72.606,-437.53Z" style="fill:#ffdb89;"/><path d="M2672.18,3056.28l-367.708,-85.516l-114.394,429.717l367.708,85.516l114.394,-429.717Z" style="fill:#ca70bf;"/><path d="M2710.72,3115.61l-354.542,-125.195l-165.802,414.719l354.542,125.195l165.802,-414.719Z" style="fill:#00e6d9;"/><path d="M2755.13,3201.24l-325.547,-182.149l-239.501,381.413l325.546,182.149l239.502,-381.413Z" style="fill:#b065ff;"/><path d="M2453.26,3103.32c-2.282,-1.215 -5.211,-0.402 -6.537,1.814l-4.803,8.032c-1.325,2.217 -0.548,5.003 1.735,6.218l180.119,95.888c2.282,1.215 5.211,0.402 6.537,-1.814l4.802,-8.032c1.326,-2.217 0.549,-5.003 -1.734,-6.218l-180.119,-95.888Z" style="fill:#a1d2e1;"/><path d="M2442.86,3066.1c-2.282,-1.215 -5.212,-0.402 -6.537,1.814l-4.803,8.032c-1.325,2.217 -0.548,5.003 1.734,6.218l243.605,129.685c2.283,1.215 5.212,0.402 6.537,-1.814l4.803,-8.032c1.325,-2.217 0.548,-5.003 -1.734,-6.218l-243.605,-129.685Z" style="fill:#a1d2e1;"/><g transform="matrix(0.975362,-0.220609,0.237481,0.971546,-658.447,395.976)"><text x="2182.11px" y="3584.96px" style="font-family:'BookAntiqua', 'Book Antiqua', serif;font-size:126.454px;fill:#7d44b0;fill-opacity:0.854902;">EA<tspan x="2331.33px " y="3584.96px ">S</tspan>T</text></g></g><g id="papers1" serif:id="papers"><path d="M1749.05,1851.17l-364.707,-101.241l-128.115,424.513l364.706,101.241l128.116,-424.513Z" style="fill:#ffdb89;"/><path d="M1778.34,1897.32l-353.682,-132.302l-168.554,411.366l353.682,132.303l168.554,-411.367Z" style="fill:#ca70bf;"/><path d="M1808.95,1961.12l-335.537,-169.95l-217.611,389.853l335.537,169.95l217.611,-389.853Z" style="fill:#00e6d9;"/><path d="M1842,2051.79l-299.478,-222.686l-286.426,347.304l299.478,222.686l286.426,-347.304Z" style="fill:#b065ff;"/><path d="M1555.2,1915.68c-2.106,-1.499 -5.114,-1.07 -6.712,0.957l-5.793,7.345c-1.599,2.027 -1.187,4.889 0.919,6.387l166.33,118.362c2.105,1.499 5.113,1.07 6.711,-0.957l5.793,-7.345c1.599,-2.027 1.187,-4.889 -0.919,-6.387l-166.329,-118.362Z" style="fill:#a1d2e1;"/><path d="M1549.66,1877.43c-2.106,-1.498 -5.113,-1.07 -6.712,0.957l-5.793,7.345c-1.598,2.027 -1.186,4.889 0.919,6.388l224.953,160.078c2.106,1.499 5.113,1.07 6.712,-0.957l5.793,-7.345c1.598,-2.027 1.187,-4.889 -0.919,-6.388l-224.953,-160.078Z" style="fill:#a1d2e1;"/><g transform="matrix(0.995685,-0.0927972,0.110888,0.993999,-175.035,60.8655)"><text x="1316.1px" y="2265.26px" style="font-family:'BookAntiqua', 'Book Antiqua', serif;font-size:126.472px;fill:#7d44b0;fill-opacity:0.854902;">EA<tspan x="1465.29px " y="2265.26px ">S</tspan>T</text></g></g><g id="papers2" serif:id="papers"><path d="M2820.31,3760.44l-323.367,-197.227l-238.625,373.352l323.367,197.227l238.625,-373.352Z" style="fill:#ffdb89;"/><path d="M2835.95,3812.85l-304.319,-224.093l-273.957,349.636l304.319,224.093l273.957,-349.636Z" style="fill:#ca70bf;"/><path d="M2848.06,3882.62l-276.631,-255.348l-315.307,315.511l276.63,255.347l315.308,-315.51Z" style="fill:#00e6d9;"/><path d="M2855.22,3978.89l-227.608,-296.215l-369.951,255.738l227.608,296.215l369.951,-255.738Z" style="fill:#b065ff;"/><path d="M2616.28,3769.43c-1.616,-2.014 -4.623,-2.421 -6.712,-0.909l-7.57,5.481c-2.088,1.513 -2.473,4.376 -0.857,6.39l127.869,159.415c1.616,2.015 4.623,2.422 6.712,0.909l7.57,-5.48c2.088,-1.513 2.473,-4.376 0.857,-6.39l-127.869,-159.416Z" style="fill:#a1d2e1;"/><path d="M2621.34,3731.12c-1.616,-2.014 -4.624,-2.422 -6.712,-0.909l-7.57,5.481c-2.088,1.512 -2.473,4.375 -0.857,6.389l172.933,215.597c1.615,2.014 4.623,2.421 6.712,0.909l7.569,-5.481c2.089,-1.513 2.473,-4.376 0.857,-6.39l-172.932,-215.596Z" style="fill:#a1d2e1;"/><g transform="matrix(0.983069,0.183236,-0.16346,0.986755,551.054,-276.071)"><text x="2501.06px" y="3856.46px" style="font-family:'BookAntiqua', 'Book Antiqua', serif;font-size:126.46px;fill:#7d44b0;fill-opacity:0.854902;">EA<tspan x="2650.26px " y="3856.46px ">S</tspan>T</text></g></g><g id="papers3" serif:id="papers"><path d="M5803.65,2656.67l-323.367,-197.227l-238.624,373.352l323.366,197.227l238.625,-373.352Z" style="fill:#ffdb89;"/><path d="M5819.29,2709.08l-304.319,-224.093l-273.957,349.636l304.319,224.093l273.957,-349.636Z" style="fill:#ca70bf;"/><path d="M5831.4,2778.85l-276.63,-255.348l-315.308,315.511l276.631,255.347l315.307,-315.51Z" style="fill:#00e6d9;"/><path d="M5838.57,2875.12l-227.607,-296.215l-369.951,255.739l227.607,296.214l369.951,-255.738Z" style="fill:#b065ff;"/><path d="M5599.62,2665.67c-1.616,-2.015 -4.623,-2.422 -6.712,-0.909l-7.569,5.48c-2.089,1.513 -2.473,4.376 -0.858,6.39l127.87,159.416c1.615,2.014 4.623,2.421 6.712,0.909l7.569,-5.481c2.089,-1.513 2.473,-4.376 0.857,-6.39l-127.869,-159.415Z" style="fill:#a1d2e1;"/><path d="M5604.69,2627.35c-1.616,-2.014 -4.623,-2.422 -6.712,-0.909l-7.569,5.481c-2.089,1.512 -2.473,4.375 -0.858,6.389l172.933,215.597c1.616,2.014 4.623,2.421 6.712,0.909l7.569,-5.481c2.089,-1.512 2.473,-4.376 0.858,-6.39l-172.933,-215.596Z" style="fill:#a1d2e1;"/><g transform="matrix(0.983069,0.183236,-0.16346,0.986755,421.143,-837.346)"><text x="5484.4px" y="2752.69px" style="font-family:'BookAntiqua', 'Book Antiqua', serif;font-size:126.46px;fill:#7d44b0;fill-opacity:0.854902;">EA<tspan x="5633.61px " y="2752.69px ">S</tspan>T</text></g></g><path d="M5268.89,2254.08l-472.907,214.899l281.973,624.967l472.907,-214.899l-281.973,-624.967Z" style="fill:#ebebeb;"/><path d="M5216.98,2342.07c-1.108,-2.485 -4.022,-3.597 -6.503,-2.482l-321.335,144.3c-2.481,1.115 -3.596,4.036 -2.488,6.52l4.015,9.002c1.108,2.484 4.022,3.596 6.503,2.482l321.335,-144.301c2.481,-1.114 3.596,-4.036 2.488,-6.52l-4.015,-9.001Z" style="fill:#e6d2b6;"/><path d="M5361.05,2649.43c-1.108,-2.484 -4.022,-3.596 -6.503,-2.482l-321.335,144.301c-2.481,1.114 -3.596,4.036 -2.488,6.52l4.015,9.001c1.108,2.485 4.022,3.597 6.503,2.482l321.335,-144.3c2.481,-1.115 3.596,-4.036 2.488,-6.52l-4.015,-9.002Z" style="fill:#e6d2b6;"/><path d="M5341.49,2607.71c-1.108,-2.484 -4.022,-3.596 -6.504,-2.482l-321.334,144.301c-2.482,1.114 -3.597,4.036 -2.489,6.52l4.016,9.002c1.108,2.484 4.022,3.596 6.503,2.481l321.335,-144.3c2.481,-1.115 3.596,-4.036 2.488,-6.52l-4.015,-9.002Z" style="fill:#e6d2b6;"/><path d="M5278.87,2472.21c-1.108,-2.484 -4.023,-3.596 -6.504,-2.482l-321.335,144.301c-2.481,1.114 -3.596,4.036 -2.488,6.52l4.015,9.001c1.108,2.485 4.022,3.597 6.504,2.482l321.334,-144.3c2.482,-1.115 3.597,-4.036 2.489,-6.52l-4.015,-9.002Z" style="fill:#e6d2b6;"/><path d="M5231.28,2370.67c-1.108,-2.484 -4.022,-3.596 -6.503,-2.481l-321.335,144.3c-2.481,1.115 -3.596,4.036 -2.488,6.52l4.015,9.002c1.108,2.484 4.022,3.596 6.503,2.482l321.335,-144.301c2.481,-1.114 3.596,-4.036 2.488,-6.52l-4.015,-9.002Z" style="fill:#e6d2b6;"/><path d="M5247.79,2405.91c-1.108,-2.484 -4.022,-3.596 -6.504,-2.482l-321.334,144.301c-2.482,1.114 -3.597,4.036 -2.489,6.52l4.015,9.002c1.108,2.484 4.022,3.596 6.504,2.481l321.335,-144.3c2.481,-1.115 3.596,-4.036 2.488,-6.52l-4.015,-9.002Z" style="fill:#e6d2b6;"/><path d="M5187.53,2475.93c-1.108,-2.484 -4.022,-3.596 -6.503,-2.482l-244.436,109.768c-2.481,1.115 -3.596,4.036 -2.488,6.52l4.015,9.002c1.108,2.484 4.022,3.596 6.503,2.482l244.436,-109.768c2.481,-1.114 3.596,-4.036 2.488,-6.52l-4.015,-9.002Z" style="fill:#e6d2b6;"/><path d="M5378.74,2686.24c-1.108,-2.484 -4.022,-3.596 -6.503,-2.482l-321.335,144.301c-2.481,1.114 -3.596,4.036 -2.488,6.52l4.015,9.001c1.108,2.484 4.022,3.597 6.503,2.482l321.335,-144.301c2.481,-1.114 3.596,-4.035 2.488,-6.519l-4.015,-9.002Z" style="fill:#e6d2b6;"/><path d="M5440.62,2816.38c-1.108,-2.484 -4.022,-3.597 -6.504,-2.482l-321.335,144.301c-2.481,1.114 -3.596,4.035 -2.488,6.519l4.015,9.002c1.108,2.484 4.022,3.596 6.504,2.482l321.334,-144.301c2.482,-1.114 3.597,-4.036 2.489,-6.52l-4.015,-9.001Z" style="fill:#e6d2b6;"/><path d="M5393.03,2714.84c-1.108,-2.484 -4.022,-3.596 -6.503,-2.482l-321.335,144.301c-2.481,1.114 -3.596,4.036 -2.488,6.52l4.015,9.001c1.108,2.484 4.022,3.597 6.503,2.482l321.335,-144.301c2.482,-1.114 3.596,-4.035 2.488,-6.519l-4.015,-9.002Z" style="fill:#e6d2b6;"/><path d="M5409.55,2750.08c-1.108,-2.484 -4.022,-3.597 -6.504,-2.482l-321.334,144.301c-2.482,1.114 -3.597,4.035 -2.489,6.519l4.015,9.002c1.108,2.484 4.022,3.596 6.504,2.482l321.335,-144.301c2.481,-1.114 3.596,-4.036 2.488,-6.52l-4.015,-9.001Z" style="fill:#e6d2b6;"/><path d="M5349.28,2820.1c-1.108,-2.484 -4.022,-3.596 -6.503,-2.482l-244.436,109.768c-2.481,1.114 -3.596,4.036 -2.488,6.52l4.015,9.001c1.108,2.485 4.022,3.597 6.503,2.482l244.436,-109.768c2.481,-1.114 3.596,-4.035 2.488,-6.519l-4.015,-9.002Z" style="fill:#e6d2b6;"/><path d="M5267.54,2539.49c-4.685,-10.636 -17.114,-15.447 -27.739,-10.737l-220.848,97.902c-10.625,4.71 -15.447,17.168 -10.762,27.804l16.977,38.54c4.685,10.636 17.114,15.447 27.739,10.737l220.848,-97.902c10.625,-4.71 15.447,-17.168 10.762,-27.804l-16.977,-38.54Z" style="fill:#e6d2b6;"/><path d="M4431.96,3804.37l-493.322,212.588l282.968,661.357l493.322,-212.588l-282.968,-661.357Z" style="fill:#ebebeb;"/><path d="M4376.85,3895.1c-1.112,-2.629 -4.146,-3.855 -6.772,-2.738l-335.044,142.593c-2.626,1.117 -3.856,4.159 -2.744,6.787l4.028,9.525c1.111,2.628 4.145,3.855 6.771,2.737l335.045,-142.592c2.626,-1.118 3.855,-4.159 2.744,-6.788l-4.028,-9.524Z" style="fill:#e6d2b6;"/><path d="M4521.6,4220.51c-1.112,-2.629 -4.146,-3.855 -6.772,-2.738l-335.044,142.593c-2.626,1.117 -3.855,4.159 -2.744,6.787l4.028,9.525c1.111,2.628 4.145,3.855 6.771,2.737l335.045,-142.593c2.626,-1.117 3.855,-4.158 2.744,-6.787l-4.028,-9.524Z" style="fill:#e6d2b6;"/><path d="M4501.95,4176.34c-1.112,-2.628 -4.146,-3.855 -6.772,-2.737l-335.045,142.593c-2.625,1.117 -3.855,4.158 -2.743,6.787l4.027,9.524c1.112,2.629 4.146,3.855 6.772,2.738l335.045,-142.593c2.625,-1.117 3.855,-4.159 2.743,-6.787l-4.027,-9.525Z" style="fill:#e6d2b6;"/><path d="M4439.06,4032.9c-1.112,-2.629 -4.146,-3.855 -6.772,-2.738l-335.045,142.593c-2.625,1.117 -3.855,4.159 -2.743,6.787l4.027,9.525c1.112,2.628 4.146,3.855 6.772,2.737l335.045,-142.593c2.625,-1.117 3.855,-4.158 2.743,-6.787l-4.027,-9.524Z" style="fill:#e6d2b6;"/><path d="M4391.24,3925.41c-1.111,-2.629 -4.146,-3.855 -6.772,-2.738l-335.044,142.593c-2.626,1.117 -3.855,4.159 -2.744,6.787l4.028,9.525c1.111,2.628 4.146,3.855 6.771,2.737l335.045,-142.593c2.626,-1.117 3.855,-4.158 2.744,-6.787l-4.028,-9.524Z" style="fill:#e6d2b6;"/><path d="M4407.84,3962.71c-1.112,-2.628 -4.146,-3.855 -6.772,-2.738l-335.044,142.593c-2.626,1.118 -3.856,4.159 -2.744,6.787l4.028,9.525c1.111,2.628 4.145,3.855 6.771,2.737l335.045,-142.592c2.626,-1.118 3.855,-4.159 2.744,-6.787l-4.028,-9.525Z" style="fill:#e6d2b6;"/><path d="M4344.34,4034.42c-1.111,-2.628 -4.146,-3.855 -6.771,-2.738l-254.833,108.455c-2.625,1.118 -3.855,4.159 -2.743,6.787l4.027,9.525c1.112,2.628 4.146,3.855 6.772,2.738l254.832,-108.455c2.626,-1.118 3.855,-4.159 2.744,-6.787l-4.028,-9.525Z" style="fill:#e6d2b6;"/><path d="M4539.39,4259.48c-1.111,-2.629 -4.145,-3.855 -6.771,-2.738l-335.045,142.593c-2.626,1.117 -3.855,4.159 -2.744,6.787l4.028,9.525c1.112,2.628 4.146,3.855 6.772,2.737l335.044,-142.593c2.626,-1.117 3.855,-4.158 2.744,-6.787l-4.028,-9.524Z" style="fill:#e6d2b6;"/><path d="M4601.6,4397.28c-1.111,-2.628 -4.146,-3.855 -6.772,-2.737l-335.044,142.593c-2.626,1.117 -3.855,4.158 -2.744,6.787l4.028,9.524c1.111,2.629 4.146,3.855 6.771,2.738l335.045,-142.593c2.626,-1.117 3.855,-4.159 2.744,-6.787l-4.028,-9.525Z" style="fill:#e6d2b6;"/><path d="M4553.78,4289.79c-1.111,-2.628 -4.145,-3.855 -6.771,-2.737l-335.045,142.593c-2.626,1.117 -3.855,4.158 -2.743,6.787l4.027,9.524c1.112,2.629 4.146,3.855 6.772,2.738l335.044,-142.593c2.626,-1.117 3.856,-4.159 2.744,-6.787l-4.028,-9.525Z" style="fill:#e6d2b6;"/><path d="M4570.38,4327.09c-1.111,-2.629 -4.145,-3.855 -6.771,-2.738l-335.045,142.593c-2.626,1.118 -3.855,4.159 -2.744,6.787l4.028,9.525c1.112,2.628 4.146,3.855 6.772,2.737l335.044,-142.592c2.626,-1.118 3.856,-4.159 2.744,-6.788l-4.028,-9.524Z" style="fill:#e6d2b6;"/><path d="M4506.88,4398.8c-1.112,-2.629 -4.146,-3.855 -6.772,-2.738l-254.832,108.455c-2.626,1.118 -3.855,4.159 -2.744,6.787l4.028,9.525c1.111,2.628 4.146,3.855 6.771,2.737l254.832,-108.454c2.626,-1.118 3.856,-4.159 2.744,-6.788l-4.027,-9.524Z" style="fill:#e6d2b6;"/><path d="M4736.74,2254.08l-369.221,327.797l436.688,495.405l369.221,-327.797l-436.688,-495.405Z" style="fill:#ebebeb;"/><path d="M4714.73,2349.13c-1.724,-1.973 -4.721,-2.169 -6.687,-0.439l-251.283,221.073c-1.967,1.731 -2.164,4.737 -0.44,6.71l6.248,7.148c1.724,1.973 4.721,2.17 6.688,0.439l251.282,-221.073c1.967,-1.731 2.164,-4.737 0.44,-6.71l-6.248,-7.148Z" style="fill:#e6d2b6;"/><path d="M4934.4,2591.3c-1.724,-1.972 -4.721,-2.169 -6.688,-0.438l-251.282,221.073c-1.967,1.73 -2.164,4.737 -0.44,6.709l6.247,7.149c1.725,1.972 4.721,2.169 6.688,0.438l251.282,-221.073c1.967,-1.73 2.164,-4.737 0.44,-6.709l-6.247,-7.149Z" style="fill:#e6d2b6;"/><path d="M4904.59,2558.43c-1.724,-1.972 -4.721,-2.169 -6.688,-0.438l-251.282,221.073c-1.967,1.73 -2.164,4.737 -0.44,6.71l6.248,7.148c1.724,1.972 4.72,2.169 6.687,0.439l251.282,-221.074c1.967,-1.73 2.165,-4.737 0.44,-6.709l-6.247,-7.149Z" style="fill:#e6d2b6;"/><path d="M4882.87,2533.36c-1.724,-1.972 -4.721,-2.169 -6.688,-0.439l-151.32,133.129c-1.967,1.731 -2.164,4.737 -0.44,6.71l6.247,7.148c1.724,1.973 4.721,2.17 6.688,0.439l151.321,-133.129c1.967,-1.73 2.164,-4.737 0.44,-6.71l-6.248,-7.148Z" style="fill:#e6d2b6;"/><path d="M4857.06,2506.29c-1.724,-1.972 -4.721,-2.169 -6.688,-0.438l-151.386,133.186c-1.967,1.731 -2.164,4.737 -0.44,6.71l6.248,7.148c1.724,1.973 4.721,2.169 6.688,0.439l151.385,-133.187c1.967,-1.73 2.165,-4.737 0.44,-6.709l-6.247,-7.149Z" style="fill:#e6d2b6;"/><path d="M4833.04,2479.69c-1.724,-1.972 -4.721,-2.169 -6.688,-0.438l-151.451,133.243c-1.967,1.731 -2.164,4.737 -0.44,6.71l6.248,7.148c1.724,1.973 4.72,2.169 6.687,0.439l151.452,-133.244c1.966,-1.73 2.164,-4.737 0.44,-6.709l-6.248,-7.149Z" style="fill:#e6d2b6;"/><path d="M4808.55,2451.42c-1.724,-1.973 -4.72,-2.17 -6.687,-0.439l-251.283,221.073c-1.967,1.731 -2.164,4.737 -0.44,6.71l6.248,7.148c1.724,1.973 4.721,2.169 6.688,0.439l251.282,-221.073c1.967,-1.731 2.164,-4.737 0.44,-6.71l-6.248,-7.148Z" style="fill:#e6d2b6;"/><path d="M4735.98,2371.43c-1.724,-1.973 -4.721,-2.169 -6.688,-0.439l-251.282,221.073c-1.967,1.731 -2.164,4.737 -0.44,6.71l6.247,7.148c1.725,1.973 4.721,2.169 6.688,0.439l251.282,-221.073c1.967,-1.731 2.165,-4.737 0.44,-6.71l-6.247,-7.148Z" style="fill:#e6d2b6;"/><path d="M4761.16,2399.19c-1.724,-1.972 -4.721,-2.169 -6.688,-0.438l-251.282,221.073c-1.967,1.73 -2.164,4.737 -0.44,6.71l6.248,7.148c1.724,1.973 4.72,2.169 6.687,0.439l251.283,-221.074c1.967,-1.73 2.164,-4.737 0.44,-6.709l-6.248,-7.149Z" style="fill:#e6d2b6;"/><path d="M4726.37,2480.08c-1.724,-1.972 -4.721,-2.169 -6.688,-0.438l-191.125,168.148c-1.967,1.73 -2.164,4.737 -0.44,6.709l6.247,7.149c1.724,1.972 4.721,2.169 6.688,0.439l191.125,-168.149c1.967,-1.73 2.164,-4.737 0.44,-6.709l-6.247,-7.149Z" style="fill:#e6d2b6;"/><path d="M4961.11,2620.17c-1.725,-1.973 -4.721,-2.17 -6.688,-0.439l-251.282,221.073c-1.967,1.731 -2.164,4.737 -0.44,6.71l6.247,7.148c1.724,1.973 4.721,2.169 6.688,0.439l251.282,-221.073c1.967,-1.731 2.164,-4.737 0.44,-6.71l-6.247,-7.148Z" style="fill:#e6d2b6;"/><path d="M5054.93,2722.46c-1.725,-1.972 -4.721,-2.169 -6.688,-0.438l-251.282,221.073c-1.967,1.73 -2.164,4.737 -0.44,6.709l6.247,7.149c1.724,1.972 4.721,2.169 6.688,0.439l251.282,-221.074c1.967,-1.73 2.164,-4.737 0.44,-6.709l-6.247,-7.149Z" style="fill:#e6d2b6;"/><path d="M4982.36,2642.46c-1.724,-1.972 -4.721,-2.169 -6.688,-0.438l-251.282,221.073c-1.967,1.73 -2.164,4.737 -0.44,6.71l6.248,7.148c1.724,1.973 4.721,2.169 6.688,0.439l251.282,-221.074c1.967,-1.73 2.164,-4.737 0.44,-6.709l-6.248,-7.149Z" style="fill:#e6d2b6;"/><path d="M5007.54,2670.22c-1.724,-1.973 -4.72,-2.169 -6.687,-0.439l-251.283,221.074c-1.967,1.73 -2.164,4.737 -0.44,6.709l6.248,7.149c1.724,1.972 4.721,2.169 6.688,0.438l251.282,-221.073c1.967,-1.73 2.164,-4.737 0.44,-6.71l-6.248,-7.148Z" style="fill:#e6d2b6;"/><path d="M4972.75,2751.11c-1.724,-1.973 -4.721,-2.169 -6.688,-0.439l-191.125,168.149c-1.967,1.73 -2.164,4.737 -0.44,6.709l6.248,7.149c1.724,1.972 4.72,2.169 6.687,0.438l191.125,-168.148c1.967,-1.73 2.165,-4.737 0.441,-6.71l-6.248,-7.148Z" style="fill:#e6d2b6;"/><path d="M4612.64,2682.82c18.135,-16.6 44.042,-17.747 57.818,-2.561c13.777,15.187 10.238,40.993 -7.896,57.593c-18.134,16.6 -44.042,17.747 -57.818,2.561c-13.776,-15.186 -10.238,-40.993 7.896,-57.593Z" style="fill:#e6d2b6;"/><g id="papers4" serif:id="papers"><path d="M2510.08,1691.45l-323.367,-197.227l-238.625,373.352l323.367,197.227l238.625,-373.352Z" style="fill:#ffdb89;"/><path d="M2525.72,1743.86l-304.319,-224.093l-273.957,349.636l304.319,224.093l273.957,-349.636Z" style="fill:#ca70bf;"/><path d="M2537.83,1813.63l-276.63,-255.347l-315.308,315.51l276.63,255.348l315.308,-315.511Z" style="fill:#00e6d9;"/><path d="M2544.99,1909.9l-227.607,-296.215l-369.951,255.739l227.607,296.214l369.951,-255.738Z" style="fill:#b065ff;"/><path d="M2306.05,1700.45c-1.616,-2.014 -4.623,-2.422 -6.712,-0.909l-7.569,5.48c-2.089,1.513 -2.474,4.376 -0.858,6.39l127.87,159.416c1.615,2.014 4.623,2.421 6.711,0.909l7.57,-5.481c2.089,-1.513 2.473,-4.376 0.857,-6.39l-127.869,-159.415Z" style="fill:#a1d2e1;"/><path d="M2311.11,1662.13c-1.616,-2.014 -4.623,-2.421 -6.712,-0.909l-7.57,5.481c-2.088,1.512 -2.473,4.375 -0.857,6.39l172.933,215.596c1.616,2.014 4.623,2.421 6.712,0.909l7.569,-5.481c2.089,-1.512 2.473,-4.376 0.858,-6.39l-172.933,-215.596Z" style="fill:#a1d2e1;"/><g transform="matrix(0.983069,0.183236,-0.16346,0.986755,207.605,-246.63)"><text x="2190.83px" y="1787.47px" style="font-family:'BookAntiqua', 'Book Antiqua', serif;font-size:126.46px;fill:#7d44b0;fill-opacity:0.854902;">EA<tspan x="2340.03px " y="1787.47px ">S</tspan>T</text></g></g><path d="M2371.3,2557.37l-514.575,-153.684l-204.563,689.85l514.576,153.684l204.562,-689.85Z" style="fill:#ebebeb;"/><path d="M2271.09,2591.65c0.823,-2.733 -0.726,-5.626 -3.457,-6.455l-348.333,-105.748c-2.732,-0.829 -5.617,0.716 -6.44,3.45l-2.983,9.904c-0.823,2.733 0.726,5.625 3.458,6.455l348.333,105.748c2.731,0.829 5.617,-0.717 6.44,-3.45l2.982,-9.904Z" style="fill:#e6d2b6;"/><path d="M2174.68,2934.63c0.823,-2.733 -0.726,-5.625 -3.457,-6.454l-348.333,-105.749c-2.732,-0.829 -5.617,0.717 -6.44,3.45l-2.983,9.905c-0.823,2.733 0.726,5.625 3.458,6.454l348.333,105.749c2.731,0.829 5.617,-0.717 6.44,-3.45l2.982,-9.905Z" style="fill:#e6d2b6;"/><path d="M2187.76,2888.07c0.823,-2.733 -0.727,-5.626 -3.458,-6.455l-348.333,-105.748c-2.731,-0.829 -5.617,0.716 -6.44,3.45l-2.983,9.904c-0.823,2.733 0.727,5.626 3.458,6.455l348.333,105.748c2.731,0.829 5.617,-0.716 6.44,-3.45l2.983,-9.904Z" style="fill:#e6d2b6;"/><path d="M2230.96,2737.48c0.823,-2.733 -0.727,-5.625 -3.458,-6.455l-348.333,-105.748c-2.731,-0.829 -5.617,0.717 -6.44,3.45l-2.983,9.904c-0.823,2.734 0.727,5.626 3.458,6.455l348.333,105.748c2.731,0.83 5.617,-0.716 6.44,-3.449l2.983,-9.905Z" style="fill:#e6d2b6;"/><path d="M2262.8,2624.18c0.823,-2.733 -0.727,-5.625 -3.458,-6.454l-348.333,-105.749c-2.731,-0.829 -5.617,0.717 -6.44,3.45l-2.983,9.905c-0.823,2.733 0.727,5.625 3.458,6.454l348.333,105.749c2.731,0.829 5.617,-0.717 6.44,-3.45l2.983,-9.905Z" style="fill:#e6d2b6;"/><path d="M2251.75,2663.5c0.823,-2.733 -0.726,-5.625 -3.458,-6.454l-348.333,-105.749c-2.731,-0.829 -5.617,0.717 -6.44,3.45l-2.982,9.905c-0.823,2.733 0.726,5.625 3.457,6.454l348.333,105.749c2.732,0.829 5.617,-0.717 6.44,-3.45l2.983,-9.905Z" style="fill:#e6d2b6;"/><path d="M2157.22,2677.78c0.823,-2.733 -0.726,-5.625 -3.457,-6.454l-264.938,-80.431c-2.732,-0.829 -5.617,0.716 -6.44,3.45l-2.983,9.904c-0.823,2.733 0.726,5.626 3.458,6.455l264.938,80.431c2.731,0.829 5.617,-0.717 6.44,-3.45l2.982,-9.905Z" style="fill:#e6d2b6;"/><path d="M2163.48,2975.99c0.823,-2.733 -0.726,-5.625 -3.458,-6.455l-348.333,-105.748c-2.731,-0.829 -5.617,0.716 -6.44,3.45l-2.982,9.904c-0.823,2.733 0.726,5.626 3.457,6.455l348.333,105.748c2.732,0.829 5.617,-0.716 6.44,-3.45l2.983,-9.904Z" style="fill:#e6d2b6;"/><path d="M2123.35,3121.82c0.823,-2.733 -0.726,-5.625 -3.457,-6.454l-348.333,-105.749c-2.732,-0.829 -5.618,0.717 -6.441,3.45l-2.982,9.905c-0.823,2.733 0.726,5.625 3.458,6.454l348.333,105.749c2.731,0.829 5.617,-0.717 6.44,-3.45l2.982,-9.905Z" style="fill:#e6d2b6;"/><path d="M2155.2,3008.52c0.823,-2.734 -0.726,-5.626 -3.457,-6.455l-348.333,-105.748c-2.732,-0.83 -5.617,0.716 -6.44,3.449l-2.983,9.905c-0.823,2.733 0.726,5.625 3.458,6.455l348.333,105.748c2.731,0.829 5.617,-0.717 6.44,-3.45l2.982,-9.904Z" style="fill:#e6d2b6;"/><path d="M2144.14,3047.84c0.823,-2.734 -0.726,-5.626 -3.457,-6.455l-348.333,-105.748c-2.732,-0.83 -5.617,0.716 -6.44,3.449l-2.983,9.905c-0.823,2.733 0.726,5.625 3.458,6.454l348.333,105.749c2.731,0.829 5.617,-0.717 6.44,-3.45l2.982,-9.904Z" style="fill:#e6d2b6;"/><path d="M2049.62,3062.12c0.823,-2.734 -0.726,-5.626 -3.458,-6.455l-264.938,-80.431c-2.731,-0.829 -5.617,0.717 -6.44,3.45l-2.982,9.904c-0.823,2.733 0.726,5.626 3.457,6.455l264.938,80.431c2.732,0.829 5.617,-0.717 6.44,-3.45l2.983,-9.904Z" style="fill:#e6d2b6;"/><path d="M4645.13,3912.34l-369.221,327.797l436.687,495.405l369.221,-327.797l-436.687,-495.405Z" style="fill:#ebebeb;"/><path d="M4623.12,4007.39c-1.725,-1.973 -4.721,-2.169 -6.688,-0.439l-251.282,221.074c-1.967,1.73 -2.164,4.737 -0.44,6.709l6.247,7.149c1.724,1.972 4.721,2.169 6.688,0.438l251.282,-221.073c1.967,-1.73 2.164,-4.737 0.44,-6.71l-6.247,-7.148Z" style="fill:#e6d2b6;"/><path d="M4842.79,4249.55c-1.724,-1.972 -4.721,-2.169 -6.688,-0.438l-251.282,221.073c-1.967,1.73 -2.164,4.737 -0.44,6.709l6.248,7.149c1.724,1.972 4.721,2.169 6.687,0.438l251.283,-221.073c1.967,-1.73 2.164,-4.737 0.44,-6.709l-6.248,-7.149Z" style="fill:#e6d2b6;"/><path d="M4812.98,4216.68c-1.724,-1.972 -4.721,-2.169 -6.688,-0.438l-251.282,221.073c-1.967,1.73 -2.164,4.737 -0.44,6.71l6.248,7.148c1.724,1.973 4.721,2.169 6.688,0.439l251.282,-221.074c1.967,-1.73 2.164,-4.737 0.44,-6.709l-6.248,-7.149Z" style="fill:#e6d2b6;"/><path d="M4791.27,4191.61c-1.724,-1.972 -4.72,-2.169 -6.687,-0.439l-151.321,133.129c-1.967,1.731 -2.164,4.737 -0.44,6.71l6.248,7.148c1.724,1.973 4.72,2.17 6.687,0.439l151.321,-133.129c1.967,-1.73 2.164,-4.737 0.44,-6.709l-6.248,-7.149Z" style="fill:#e6d2b6;"/><path d="M4765.45,4164.55c-1.724,-1.972 -4.721,-2.169 -6.688,-0.438l-151.385,133.186c-1.967,1.731 -2.165,4.737 -0.441,6.71l6.248,7.148c1.724,1.973 4.721,2.169 6.688,0.439l151.386,-133.187c1.967,-1.73 2.164,-4.737 0.44,-6.709l-6.248,-7.149Z" style="fill:#e6d2b6;"/><path d="M4741.43,4137.94c-1.724,-1.972 -4.72,-2.169 -6.687,-0.438l-151.452,133.243c-1.967,1.731 -2.164,4.737 -0.44,6.71l6.248,7.148c1.724,1.973 4.721,2.17 6.688,0.439l151.451,-133.244c1.967,-1.73 2.164,-4.737 0.44,-6.709l-6.248,-7.149Z" style="fill:#e6d2b6;"/><path d="M4716.94,4109.68c-1.725,-1.973 -4.721,-2.169 -6.688,-0.439l-251.282,221.073c-1.967,1.731 -2.164,4.737 -0.44,6.71l6.247,7.148c1.724,1.973 4.721,2.169 6.688,0.439l251.282,-221.073c1.967,-1.731 2.164,-4.737 0.44,-6.71l-6.247,-7.148Z" style="fill:#e6d2b6;"/><path d="M4644.37,4029.68c-1.724,-1.973 -4.721,-2.169 -6.688,-0.439l-251.282,221.073c-1.967,1.731 -2.164,4.737 -0.44,6.71l6.248,7.148c1.724,1.973 4.721,2.169 6.688,0.439l251.282,-221.073c1.967,-1.731 2.164,-4.737 0.44,-6.71l-6.248,-7.148Z" style="fill:#e6d2b6;"/><path d="M4669.55,4057.44c-1.724,-1.972 -4.72,-2.169 -6.687,-0.438l-251.283,221.073c-1.967,1.73 -2.164,4.737 -0.44,6.71l6.248,7.148c1.724,1.973 4.721,2.169 6.688,0.439l251.282,-221.074c1.967,-1.73 2.164,-4.737 0.44,-6.709l-6.248,-7.149Z" style="fill:#e6d2b6;"/><path d="M4634.76,4138.33c-1.724,-1.972 -4.721,-2.169 -6.688,-0.438l-191.125,168.148c-1.967,1.73 -2.164,4.737 -0.44,6.71l6.248,7.148c1.724,1.972 4.72,2.169 6.687,0.439l191.125,-168.149c1.967,-1.73 2.165,-4.737 0.441,-6.709l-6.248,-7.149Z" style="fill:#e6d2b6;"/><path d="M4869.5,4278.42c-1.724,-1.973 -4.721,-2.169 -6.688,-0.439l-251.282,221.073c-1.967,1.731 -2.164,4.737 -0.44,6.71l6.248,7.148c1.724,1.973 4.72,2.169 6.687,0.439l251.282,-221.073c1.967,-1.731 2.165,-4.737 0.441,-6.71l-6.248,-7.148Z" style="fill:#e6d2b6;"/><path d="M4963.32,4380.71c-1.724,-1.972 -4.721,-2.169 -6.688,-0.438l-251.282,221.073c-1.967,1.73 -2.164,4.737 -0.44,6.71l6.248,7.148c1.724,1.973 4.72,2.169 6.687,0.439l251.282,-221.074c1.967,-1.73 2.165,-4.737 0.441,-6.709l-6.248,-7.149Z" style="fill:#e6d2b6;"/><path d="M4890.75,4300.72c-1.724,-1.972 -4.72,-2.169 -6.687,-0.438l-251.282,221.073c-1.967,1.73 -2.165,4.737 -0.441,6.71l6.248,7.148c1.724,1.973 4.721,2.169 6.688,0.439l251.282,-221.074c1.967,-1.73 2.164,-4.737 0.44,-6.709l-6.248,-7.149Z" style="fill:#e6d2b6;"/><path d="M4915.94,4328.48c-1.724,-1.973 -4.721,-2.169 -6.688,-0.439l-251.282,221.074c-1.967,1.73 -2.164,4.737 -0.44,6.709l6.247,7.149c1.724,1.972 4.721,2.169 6.688,0.438l251.282,-221.073c1.967,-1.73 2.164,-4.737 0.44,-6.71l-6.247,-7.148Z" style="fill:#e6d2b6;"/><path d="M4881.14,4409.36c-1.724,-1.973 -4.72,-2.169 -6.687,-0.439l-191.126,168.149c-1.967,1.73 -2.164,4.737 -0.44,6.709l6.248,7.149c1.724,1.972 4.721,2.169 6.688,0.438l191.125,-168.148c1.967,-1.73 2.164,-4.737 0.44,-6.71l-6.248,-7.148Z" style="fill:#e6d2b6;"/><path d="M4521.03,4341.08c18.134,-16.599 44.041,-17.747 57.818,-2.561c13.776,15.187 10.238,40.993 -7.897,57.593c-18.134,16.6 -44.041,17.747 -57.818,2.561c-13.776,-15.186 -10.238,-40.993 7.897,-57.593Z" style="fill:#e6d2b6;"/><g id="box"><path d="M1341.48,3016.09l-240.317,-1376.36l-861.738,151.543l240.317,1376.36l861.738,-151.544Z" style="fill:#ffcb70;"/><path d="M1148.44,1631.42l212.607,-262.684l-32.937,-38.772l-226.951,309.771l47.281,-8.315Z" style="fill:#ffa179;"/><path d="M1652.16,3201.3l-255.387,-206.293l-55.211,21.557l307.638,224.055l2.96,-39.319Z" style="fill:#ffa179;"/><path d="M1341.48,3016.09l-240.317,-1376.36l192.555,-70.504l257.558,1457.5l-209.796,-10.641Z" style="fill:#ffa179;"/><g id="Layer1"><path d="M565.106,2315.73c1.983,2.132 5.544,2.588 7.946,1.017l208.733,-136.515c2.402,-1.571 2.742,-4.578 0.758,-6.71l-7.189,-7.726c-1.983,-2.132 -5.544,-2.588 -7.946,-1.017l-208.733,136.516c-2.402,1.571 -2.742,4.577 -0.758,6.709l7.189,7.726Z" style="fill:#a463a9;"/><path d="M898.897,2656.67c2.757,-1.772 3.228,-5.15 1.051,-7.538l-311.39,-341.511c-2.178,-2.388 -6.184,-2.888 -8.941,-1.116l-9.992,6.422c-2.757,1.772 -3.228,5.15 -1.051,7.538l311.39,341.511c2.177,2.388 6.184,2.888 8.941,1.116l9.992,-6.422Z" style="fill:#a463a9;"/><path d="M879.354,2664.23c1.88,2.197 5.387,2.776 7.825,1.292l221.95,-135.096c2.438,-1.485 2.891,-4.474 1.011,-6.671l-6.815,-7.962c-1.881,-2.197 -5.387,-2.776 -7.826,-1.292l-221.949,135.096c-2.439,1.485 -2.891,4.473 -1.011,6.671l6.815,7.962Z" style="fill:#a463a9;"/><path d="M1104.86,2527.47c2.757,-1.773 3.228,-5.15 1.051,-7.538l-325.812,-357.328c-2.177,-2.387 -6.183,-2.887 -8.94,-1.115l-9.992,6.422c-2.758,1.772 -3.228,5.15 -1.051,7.537l325.811,357.328c2.177,2.388 6.184,2.888 8.941,1.116l9.992,-6.422Z" style="fill:#a463a9;"/><g transform="matrix(0.625228,0.780442,-0.866766,0.517474,968.148,-350.775)"><text x="2102.49px" y="1913.08px" style="font-family:'BookAntiqua', 'Book Antiqua', serif;font-size:225.285px;fill:#7d44b0;fill-opacity:0.854902;">EA<tspan x="2337.49px " y="1913.08px ">S</tspan>T</text></g></g></g><g id="typewriter"><path d="M5505.13,3550.7c0.58,-2.442 -0.931,-4.899 -3.372,-5.483l-168.338,-40.259c-2.441,-0.584 -4.894,0.925 -5.474,3.367l-2.101,8.849c-0.58,2.442 0.931,4.899 3.372,5.483l168.338,40.259c2.442,0.584 4.894,-0.925 5.474,-3.367l2.101,-8.849Z"/><path d="M5345.65,3512.56c0.581,-2.443 -0.932,-4.902 -3.374,-5.486l-8.853,-2.117c-2.443,-0.585 -4.897,0.925 -5.478,3.369l-64.892,273.286c-0.581,2.444 0.932,4.903 3.375,5.487l8.852,2.117c2.443,0.584 4.898,-0.926 5.478,-3.369l64.892,-273.287Z"/><path d="M5515.33,3507.77c0.646,-2.721 -1.038,-5.457 -3.757,-6.108l-9.854,-2.356c-2.719,-0.651 -5.451,1.03 -6.097,3.75l-12.175,51.273c-0.646,2.72 1.037,5.457 3.757,6.107l9.854,2.357c2.719,0.65 5.451,-1.03 6.097,-3.751l12.175,-51.272Z"/><path d="M5926.2,3928.67c0.536,-2.258 -0.861,-4.53 -3.119,-5.07l-652.373,-156.02c-2.257,-0.54 -4.526,0.855 -5.062,3.114l-1.943,8.184c-0.537,2.258 0.861,4.53 3.119,5.07l652.373,156.02c2.257,0.54 4.525,-0.855 5.062,-3.114l1.943,-8.184Z"/><path d="M5988.35,3666.93c0.662,-2.79 -1.064,-5.596 -3.852,-6.262l-10.104,-2.417c-2.788,-0.667 -5.589,1.057 -6.252,3.846l-63.865,268.961c-0.663,2.789 1.063,5.595 3.851,6.262l10.104,2.416c2.788,0.667 5.59,-1.056 6.252,-3.845l63.866,-268.961Z"/><path d="M5989.32,3662.86c0.73,-3.075 -1.173,-6.17 -4.248,-6.905l-156.096,-37.331c-3.074,-0.736 -6.163,1.164 -6.894,4.24l-2.646,11.146c-0.731,3.075 1.173,6.17 4.247,6.905l156.096,37.331c3.075,0.736 6.164,-1.164 6.894,-4.24l2.647,-11.146Z"/><path d="M5849.88,3587.42c0.601,-2.532 -0.965,-5.078 -3.495,-5.683l-9.17,-2.193c-2.531,-0.605 -5.073,0.958 -5.674,3.49l-12.337,51.957c-0.602,2.531 0.965,5.078 3.495,5.683l9.17,2.193c2.53,0.605 5.073,-0.959 5.674,-3.49l12.337,-51.957Z"/><path d="M5934.85,3594.53c1.069,-4.503 -1.717,-9.032 -6.218,-10.109l-504.562,-120.67c-4.501,-1.076 -9.023,1.705 -10.093,6.208l-3.874,16.316c-1.069,4.503 1.717,9.032 6.218,10.109l504.562,120.67c4.501,1.076 9.023,-1.705 10.092,-6.208l3.875,-16.316Z"/><path d="M5444.55,3460.99c0.882,-3.715 -1.417,-7.452 -5.13,-8.34l-13.458,-3.219c-3.714,-0.888 -7.445,1.407 -8.328,5.122l-11.074,46.639c-0.882,3.715 1.417,7.453 5.13,8.341l13.458,3.218c3.714,0.889 7.445,-1.407 8.328,-5.122l11.074,-46.639Z"/><path d="M5938.54,3578.96c0.86,-3.622 -1.381,-7.264 -5.001,-8.13l-13.117,-3.137c-3.619,-0.866 -7.256,1.371 -8.116,4.992l-11.155,46.98c-0.86,3.621 1.38,7.264 5,8.13l13.117,3.137c3.62,0.866 7.257,-1.372 8.117,-4.993l11.155,-46.979Z"/><path d="M5595.96,3294.85c0.212,-0.893 -0.34,-1.79 -1.232,-2.004l-3.232,-0.773c-0.892,-0.213 -1.789,0.338 -2.001,1.231l-53.254,224.273c-0.212,0.892 0.341,1.79 1.233,2.003l3.232,0.773c0.892,0.213 1.788,-0.338 2,-1.23l53.254,-224.273Z"/><path d="M5848.69,3355.46c0.232,-0.978 -0.373,-1.961 -1.35,-2.195l-255.697,-61.152c-0.977,-0.234 -1.959,0.37 -2.191,1.348l-0.841,3.542c-0.232,0.978 0.372,1.961 1.35,2.195l255.697,61.152c0.977,0.233 1.958,-0.371 2.19,-1.348l0.842,-3.542Z"/><path d="M5848.63,3355.71c0.265,-1.115 -0.425,-2.237 -1.54,-2.504l-4.04,-0.966c-1.115,-0.267 -2.235,0.423 -2.5,1.538l-53.062,223.465c-0.265,1.115 0.425,2.237 1.54,2.504l4.04,0.966c1.115,0.267 2.235,-0.422 2.5,-1.538l53.062,-223.465Z"/><path d="M5437.63,3593.13c0.669,-2.816 -1.074,-5.649 -3.889,-6.322l-23.703,-5.669c-2.815,-0.673 -5.644,1.067 -6.312,3.883l-2.424,10.205c-0.668,2.816 1.074,5.649 3.889,6.323l23.703,5.668c2.816,0.674 5.644,-1.066 6.313,-3.882l2.423,-10.206Z"/><path d="M5513.86,3611.36c0.669,-2.816 -1.074,-5.649 -3.889,-6.322l-24.776,-5.926c-2.815,-0.673 -5.644,1.067 -6.312,3.883l-2.424,10.205c-0.668,2.817 1.074,5.65 3.889,6.323l24.776,5.925c2.816,0.674 5.644,-1.066 6.313,-3.882l2.423,-10.206Z"/><path d="M5604.99,3633.16c0.669,-2.816 -1.073,-5.649 -3.889,-6.322l-26.747,-6.397c-2.815,-0.673 -5.644,1.066 -6.312,3.883l-2.424,10.205c-0.668,2.816 1.074,5.649 3.889,6.322l26.748,6.397c2.815,0.674 5.643,-1.066 6.312,-3.882l2.423,-10.206Z"/><path d="M5706.16,3657.36c0.668,-2.816 -1.074,-5.649 -3.889,-6.322l-23.79,-5.69c-2.815,-0.673 -5.644,1.067 -6.312,3.883l-2.423,10.205c-0.669,2.816 1.073,5.649 3.889,6.323l23.789,5.689c2.815,0.673 5.644,-1.066 6.312,-3.883l2.424,-10.205Z"/><path d="M5798.48,3679.43c0.668,-2.816 -1.074,-5.649 -3.889,-6.323l-23.564,-5.635c-2.815,-0.673 -5.643,1.067 -6.312,3.883l-2.423,10.205c-0.669,2.816 1.074,5.649 3.889,6.322l23.563,5.636c2.815,0.673 5.644,-1.067 6.312,-3.883l2.424,-10.205Z"/><path d="M5898.19,3703.28c0.669,-2.816 -1.074,-5.649 -3.889,-6.322l-24.752,-5.92c-2.815,-0.673 -5.643,1.067 -6.312,3.883l-2.423,10.205c-0.669,2.816 1.074,5.649 3.889,6.323l24.751,5.919c2.816,0.673 5.644,-1.066 6.313,-3.883l2.423,-10.205Z"/><path d="M5428.36,3635.78c0.669,-2.816 -1.074,-5.649 -3.889,-6.322l-23.703,-5.669c-2.815,-0.673 -5.644,1.067 -6.312,3.883l-2.424,10.205c-0.668,2.816 1.074,5.649 3.889,6.323l23.703,5.668c2.816,0.674 5.644,-1.066 6.313,-3.882l2.423,-10.206Z"/><path d="M5504.58,3654.01c0.669,-2.816 -1.074,-5.649 -3.889,-6.322l-24.776,-5.926c-2.815,-0.673 -5.644,1.067 -6.312,3.883l-2.424,10.205c-0.668,2.817 1.074,5.65 3.889,6.323l24.777,5.925c2.815,0.674 5.643,-1.066 6.312,-3.883l2.423,-10.205Z"/><path d="M5595.72,3675.81c0.669,-2.816 -1.073,-5.649 -3.889,-6.322l-27.555,-6.59c-2.815,-0.674 -5.644,1.066 -6.312,3.882l-2.424,10.206c-0.668,2.816 1.074,5.649 3.89,6.322l27.555,6.59c2.815,0.673 5.643,-1.066 6.312,-3.883l2.423,-10.205Z"/><path d="M5696.89,3700c0.668,-2.816 -1.074,-5.649 -3.889,-6.322l-24.598,-5.883c-2.815,-0.673 -5.643,1.067 -6.312,3.883l-2.423,10.205c-0.669,2.816 1.074,5.649 3.889,6.323l24.597,5.882c2.815,0.673 5.644,-1.066 6.312,-3.883l2.424,-10.205Z"/><path d="M5789.2,3722.08c0.668,-2.816 -1.074,-5.649 -3.889,-6.323l-24.372,-5.828c-2.815,-0.673 -5.643,1.066 -6.312,3.883l-2.423,10.205c-0.669,2.816 1.074,5.649 3.889,6.322l24.371,5.829c2.815,0.673 5.644,-1.067 6.312,-3.883l2.424,-10.205Z"/><path d="M5888.91,3745.93c0.669,-2.816 -1.074,-5.649 -3.889,-6.322l-25.559,-6.113c-2.816,-0.673 -5.644,1.066 -6.313,3.883l-2.423,10.205c-0.669,2.816 1.074,5.649 3.889,6.322l25.559,6.113c2.816,0.673 5.644,-1.066 6.313,-3.883l2.423,-10.205Z"/><path d="M5403.09,3735c0.669,-2.816 -1.074,-5.649 -3.889,-6.322l-23.703,-5.669c-2.815,-0.673 -5.643,1.066 -6.312,3.883l-2.423,10.205c-0.669,2.816 1.074,5.649 3.889,6.322l23.703,5.669c2.815,0.673 5.643,-1.066 6.312,-3.883l2.423,-10.205Z"/><path d="M5479.32,3753.23c0.669,-2.816 -1.073,-5.649 -3.889,-6.322l-24.776,-5.926c-2.815,-0.673 -5.643,1.067 -6.312,3.883l-2.423,10.205c-0.669,2.816 1.074,5.649 3.889,6.323l24.776,5.925c2.815,0.673 5.643,-1.067 6.312,-3.883l2.423,-10.205Z"/><path d="M5705.52,3807.33c0.669,-2.816 -1.074,-5.649 -3.889,-6.322l-186.447,-44.59c-2.815,-0.674 -5.643,1.066 -6.312,3.882l-2.423,10.205c-0.669,2.817 1.074,5.65 3.889,6.323l186.446,44.59c2.815,0.673 5.644,-1.066 6.313,-3.883l2.423,-10.205Z"/><path d="M5763.94,3821.3c0.669,-2.817 -1.074,-5.65 -3.889,-6.323l-22.756,-5.442c-2.815,-0.673 -5.643,1.066 -6.312,3.883l-2.423,10.205c-0.669,2.816 1.074,5.649 3.889,6.322l22.756,5.443c2.815,0.673 5.643,-1.067 6.312,-3.883l2.423,-10.205Z"/><path d="M5863.65,3845.14c0.669,-2.816 -1.074,-5.649 -3.889,-6.323l-23.943,-5.726c-2.816,-0.673 -5.644,1.066 -6.313,3.883l-2.423,10.205c-0.669,2.816 1.074,5.649 3.889,6.322l23.944,5.727c2.815,0.673 5.643,-1.067 6.312,-3.883l2.423,-10.205Z"/><path d="M5413.36,3691.73c0.669,-2.816 -1.074,-5.649 -3.889,-6.323l-23.703,-5.668c-2.815,-0.674 -5.644,1.066 -6.312,3.882l-2.424,10.206c-0.668,2.816 1.074,5.649 3.889,6.322l23.703,5.669c2.816,0.673 5.644,-1.067 6.313,-3.883l2.423,-10.205Z"/><path d="M5489.59,3709.96c0.669,-2.816 -1.074,-5.649 -3.889,-6.323l-24.776,-5.925c-2.815,-0.673 -5.644,1.066 -6.312,3.883l-2.424,10.205c-0.668,2.816 1.074,5.649 3.889,6.322l24.777,5.926c2.815,0.673 5.643,-1.067 6.312,-3.883l2.423,-10.205Z"/><path d="M5580.73,3731.75c0.669,-2.816 -1.073,-5.649 -3.889,-6.323l-25.939,-6.203c-2.815,-0.674 -5.644,1.066 -6.313,3.882l-2.423,10.206c-0.669,2.816 1.074,5.649 3.889,6.322l25.94,6.204c2.815,0.673 5.643,-1.067 6.312,-3.883l2.423,-10.205Z"/><path d="M5681.9,3755.95c0.668,-2.816 -1.074,-5.649 -3.889,-6.323l-23.075,-5.518c-2.815,-0.674 -5.644,1.066 -6.313,3.882l-2.423,10.206c-0.669,2.816 1.074,5.649 3.889,6.322l23.075,5.519c2.815,0.673 5.644,-1.067 6.313,-3.883l2.423,-10.205Z"/><path d="M5774.21,3778.03c0.668,-2.816 -1.074,-5.649 -3.889,-6.322l-22.756,-5.442c-2.815,-0.674 -5.644,1.066 -6.312,3.882l-2.424,10.206c-0.668,2.816 1.074,5.649 3.89,6.322l22.755,5.442c2.815,0.674 5.644,-1.066 6.312,-3.882l2.424,-10.206Z"/><path d="M5873.92,3801.87c0.669,-2.817 -1.074,-5.65 -3.889,-6.323l-23.944,-5.726c-2.815,-0.674 -5.643,1.066 -6.312,3.883l-2.423,10.205c-0.669,2.816 1.073,5.649 3.889,6.322l23.943,5.727c2.816,0.673 5.644,-1.067 6.313,-3.883l2.423,-10.205Z"/><path d="M5757.09,3367.95c0.148,-0.622 -0.237,-1.247 -0.858,-1.396l-144.475,-34.552c-0.622,-0.149 -1.246,0.235 -1.394,0.857l-0.535,2.253c-0.147,0.621 0.237,1.247 0.859,1.395l144.475,34.553c0.621,0.148 1.246,-0.236 1.393,-0.857l0.535,-2.253Z"/><path d="M5727.2,3388.52c0.174,-0.732 -0.279,-1.469 -1.011,-1.644l-120.409,-28.797c-0.732,-0.175 -1.467,0.278 -1.641,1.01l-0.63,2.654c-0.174,0.733 0.279,1.469 1.011,1.645l120.408,28.796c0.732,0.175 1.468,-0.277 1.642,-1.01l0.63,-2.654Z"/><path d="M5721.23,3413.67c0.183,-0.772 -0.295,-1.549 -1.067,-1.734l-120.264,-28.762c-0.772,-0.184 -1.547,0.293 -1.731,1.065l-0.664,2.798c-0.183,0.773 0.294,1.55 1.066,1.734l120.264,28.762c0.772,0.185 1.548,-0.292 1.731,-1.064l0.665,-2.799Z"/><path d="M5721.1,3442.3c0.165,-0.696 -0.266,-1.395 -0.961,-1.562l-126.853,-30.338c-0.695,-0.166 -1.394,0.264 -1.559,0.959l-0.598,2.521c-0.165,0.695 0.265,1.395 0.96,1.561l126.853,30.338c0.695,0.166 1.394,-0.263 1.559,-0.959l0.599,-2.52Z"/><path d="M5665.34,3459.45c0.147,-0.621 -0.237,-1.247 -0.859,-1.395l-78.211,-18.705c-0.621,-0.149 -1.246,0.235 -1.393,0.857l-0.535,2.253c-0.148,0.621 0.237,1.247 0.858,1.395l78.211,18.705c0.622,0.149 1.246,-0.235 1.394,-0.857l0.535,-2.253Z"/><path d="M5739.98,3503.21c0.157,-0.66 -0.252,-1.324 -0.912,-1.482l-158.535,-37.915c-0.66,-0.158 -1.323,0.25 -1.479,0.91l-0.568,2.392c-0.157,0.66 0.251,1.324 0.911,1.482l158.536,37.915c0.659,0.158 1.322,-0.25 1.479,-0.91l0.568,-2.392Z"/></g><g id="Tv"><path d="M4394.84,3394.99c-1.277,-2.943 -4.7,-4.288 -7.639,-3.003l-10.649,4.658c-2.939,1.285 -4.288,4.717 -3.01,7.659l169.934,391.372c1.277,2.942 4.7,4.287 7.639,3.002l10.649,-4.657c2.939,-1.285 4.288,-4.717 3.01,-7.659l-169.934,-391.372Z"/><path d="M5176.44,3512.32c-0.865,-1.993 -3.184,-2.905 -5.175,-2.034l-617.476,270.034c-1.991,0.871 -2.905,3.196 -2.04,5.19l3.137,7.223c0.865,1.993 3.185,2.905 5.176,2.034l617.475,-270.034c1.992,-0.871 2.905,-3.196 2.04,-5.19l-3.137,-7.223Z"/><path d="M5019.86,3119.68c-0.881,-2.03 -3.242,-2.958 -5.27,-2.072l-629.041,275.093c-2.028,0.886 -2.958,3.254 -2.077,5.283l3.194,7.355c0.881,2.03 3.242,2.958 5.27,2.071l629.041,-275.092c2.028,-0.886 2.958,-3.254 2.077,-5.284l-3.194,-7.354Z"/><path d="M5020.81,3121.86c-1.402,-3.228 -5.157,-4.704 -8.381,-3.294l-11.684,5.109c-3.224,1.41 -4.704,5.176 -3.303,8.404l169.485,390.336c1.401,3.228 5.157,4.704 8.381,3.294l11.684,-5.11c3.224,-1.41 4.704,-5.175 3.302,-8.403l-169.484,-390.336Z"/><path d="M4862.53,3645.3l105.154,65.412l-129.008,56.418l23.854,-121.83Z"/><path d="M4428.99,3253.55c-1.87,-1.718 -4.961,-1.81 -6.899,-0.204l-7.02,5.817c-1.938,1.606 -1.992,4.304 -0.122,6.022l86.758,79.705c1.87,1.718 4.961,1.809 6.898,0.204l7.021,-5.818c1.937,-1.605 1.992,-4.304 0.122,-6.022l-86.758,-79.704Z"/><path d="M4501.29,3192.04c-0.402,-2.35 -2.595,-3.772 -4.894,-3.173l-8.331,2.169c-2.299,0.599 -3.839,2.993 -3.437,5.343l24.656,144.109c0.402,2.35 2.595,3.772 4.894,3.173l8.331,-2.169c2.299,-0.599 3.839,-2.993 3.437,-5.343l-24.656,-144.109Z"/></g></g></svg>